<svg data-v-423bf9ae="" xmlns="http://www.w3.org/2000/svg" viewBox="0 0 338.36734107536466 60" class="font"><!----><!----><!----><g data-v-423bf9ae="" id="b5fe3e5e-0c1e-4d66-be31-d4b13f8cad43" fill="black" transform="matrix(5.830903811703725,0,0,5.830903811703725,-6.180755816310182,-2.448980234671076)"><path d="M8.23 10.50L8.23 9.02L2.72 9.02L2.72 0.42L1.06 0.42L1.06 10.50ZM13.90 9.66C13.93 9.97 13.99 10.30 14.20 10.50L15.76 10.50C15.51 10.23 15.37 9.76 15.37 9.02L15.37 5.92C15.37 3.95 14.35 3.01 12.43 3.01C11.05 3.01 9.70 3.53 9.34 5.21L10.74 5.59C10.95 4.79 11.44 4.27 12.32 4.27C13.26 4.27 13.82 4.75 13.82 5.64L13.82 5.88C13.45 6.05 12.74 6.17 11.97 6.24C10.30 6.43 9.11 7.04 9.11 8.61C9.11 10.04 10.25 10.71 11.58 10.71C12.45 10.71 13.22 10.43 13.90 9.66ZM13.82 8.41C13.48 8.90 12.71 9.51 11.87 9.51C11.23 9.51 10.71 9.24 10.71 8.53C10.70 7.67 11.44 7.48 12.17 7.35C12.87 7.24 13.51 7.08 13.82 6.96ZM18.73 10.50L18.73 6.82C18.73 5.40 19.33 4.47 20.54 4.47C20.97 4.47 21.25 4.59 21.53 4.77L21.88 3.39C21.55 3.12 21.15 3.01 20.59 3.01C19.64 3.01 19.07 3.50 18.61 4.48L18.61 3.22L17.18 3.22L17.18 10.50ZM27.09 9.66C27.12 9.97 27.17 10.30 27.38 10.50L28.95 10.50C28.70 10.23 28.56 9.76 28.56 9.02L28.56 5.92C28.56 3.95 27.54 3.01 25.62 3.01C24.23 3.01 22.89 3.53 22.53 5.21L23.93 5.59C24.14 4.79 24.63 4.27 25.51 4.27C26.45 4.27 27.01 4.75 27.01 5.64L27.01 5.88C26.64 6.05 25.93 6.17 25.16 6.24C23.49 6.43 22.30 7.04 22.30 8.61C22.30 10.04 23.44 10.71 24.77 10.71C25.63 10.71 26.40 10.43 27.09 9.66ZM27.01 8.41C26.67 8.90 25.90 9.51 25.06 9.51C24.42 9.51 23.90 9.24 23.90 8.53C23.88 7.67 24.63 7.48 25.35 7.35C26.05 7.24 26.70 7.08 27.01 6.96ZM29.81 7.66C29.76 9.66 30.98 10.71 32.82 10.71C34.75 10.71 35.94 9.60 35.94 7.27L35.94 0.42L34.29 0.42L34.29 7.18C34.29 8.34 34.06 9.30 32.82 9.30C31.72 9.30 31.36 8.46 31.33 7.43ZM37.45 6.86C37.45 9.37 38.93 10.71 40.94 10.71C42.92 10.71 44.41 9.37 44.41 6.86C44.41 4.35 42.92 3.01 40.94 3.01C38.93 3.01 37.45 4.35 37.45 6.86ZM39.00 6.86C39.00 5.10 39.87 4.31 40.94 4.31C41.99 4.31 42.85 5.10 42.85 6.86C42.85 8.62 41.99 9.42 40.94 9.42C39.87 9.42 39.00 8.62 39.00 6.86ZM45.70 0.42L45.70 10.50L47.11 10.50L47.11 9.56C47.53 10.26 48.20 10.71 49.13 10.71C51.04 10.71 52.25 9.23 52.25 6.86C52.25 4.49 51.02 3.01 49.10 3.01C48.33 3.01 47.67 3.33 47.25 3.95L47.25 0.42ZM47.10 6.86C47.10 5.17 47.88 4.31 48.92 4.31C49.95 4.31 50.69 5.17 50.69 6.86C50.69 8.57 49.94 9.42 48.93 9.42C48.01 9.42 47.10 8.57 47.10 6.86ZM53.12 8.40C53.24 9.83 54.35 10.71 56.13 10.71C57.68 10.71 59.09 10.04 59.09 8.43C59.09 7.03 58.13 6.52 57.26 6.30L55.40 5.84C54.99 5.74 54.63 5.52 54.63 5.11C54.63 4.56 55.15 4.26 56.03 4.26C56.81 4.26 57.34 4.59 57.46 5.33L58.86 5.11C58.77 3.92 57.81 3.01 56.07 3.01C54.57 3.01 53.23 3.65 53.23 5.22C53.23 6.43 54.08 6.96 55.03 7.20L56.80 7.64C57.39 7.80 57.64 8.05 57.64 8.53C57.64 9.25 56.83 9.46 56.17 9.46C55.10 9.46 54.63 8.90 54.53 8.18L53.12 8.40Z"></path></g><!----><!----></svg>