<svg data-v-fde0c5aa="" xmlns="http://www.w3.org/2000/svg" viewBox="0 0 300 300" class="font"><!----><defs data-v-fde0c5aa=""><!----></defs><rect data-v-fde0c5aa="" fill="#22B926" x="0" y="0" width="300px" height="300px" class="logo-background-square"></rect><defs data-v-fde0c5aa=""><!----></defs><g data-v-fde0c5aa="" id="71d3ffc4-9a67-4cb4-8303-7ea6572fd8a2" fill="#8FD989" transform="matrix(3.795066583480774,0,0,3.795066583480774,39.1650853561583,115.29411616645348)"><path d="M6.77 13.92L1.80 13.92L1.80 13.92Q1.05 13.92 0.63 13.51L0.63 13.51L0.63 13.51Q0.22 13.11 0.22 12.30L0.22 12.30L0.22 5.61L0.22 5.61Q0.58 5.30 1.10 5.14L1.10 5.14L1.10 5.14Q1.63 4.97 2.19 4.97L2.19 4.97L2.19 4.97Q3.01 4.97 3.59 5.38L3.59 5.38L3.59 5.38Q4.21 5.84 4.21 6.67L4.21 6.67L4.21 10.40L4.21 10.40Q3.83 10.44 3.46 10.62L3.46 10.62L3.46 10.62Q3.09 10.80 3.09 10.99L3.09 10.99L3.09 10.99Q3.09 11.11 3.22 11.19L3.22 11.19L3.22 11.19Q3.90 10.62 5.23 10.62L5.23 10.62L6.85 10.62L6.85 10.62Q7.30 11.42 7.30 12.24L7.30 12.24L7.30 12.24Q7.30 12.65 7.16 13.15L7.16 13.15L7.16 13.15Q7.01 13.65 6.77 13.92L6.77 13.92ZM14.43 9.19L14.43 10.53L14.43 10.53Q14.43 11.02 14.54 11.32L14.54 11.32L14.54 11.32Q14.65 11.62 14.92 11.79L14.92 11.79L14.92 11.79Q14.93 11.83 14.93 11.92L14.93 11.92L14.93 12.04L14.93 12.04Q14.93 13.02 14.34 13.56L14.34 13.56L14.34 13.56Q13.82 14.03 13.06 14.03L13.06 14.03L13.06 14.03Q12.54 14.03 12.11 13.79L12.11 13.79L12.11 13.79Q11.68 13.54 11.49 13.08L11.49 13.08L11.49 13.08Q11.26 13.08 11.26 13.30L11.26 13.30L11.26 13.30Q11.26 13.49 11.50 13.73L11.50 13.73L11.50 13.73Q11.05 14.03 10.16 14.03L10.16 14.03L10.16 14.03Q8.89 14.03 8.14 13.35L8.14 13.35L8.14 13.35Q7.38 12.66 7.38 11.43L7.38 11.43L7.38 11.43Q7.38 10.19 8.18 9.52L8.18 9.52L8.18 9.52Q8.91 8.91 10.08 8.91L10.08 8.91L10.08 8.91Q10.47 8.91 10.84 8.96L10.84 8.96L10.84 8.96Q11.09 9.01 11.11 9.02L11.11 9.02L11.11 9.02Q11.13 8.95 11.13 8.90L11.13 8.90L11.13 8.90Q11.13 8.72 10.83 8.66L10.83 8.66L10.83 8.66Q10.53 8.60 10.04 8.60L10.04 8.60L10.04 8.60Q9.01 8.60 8.28 9.02L8.28 9.02L8.28 9.02Q7.94 8.45 7.94 7.58L7.94 7.58L7.94 7.58Q7.94 7.09 8.07 6.85L8.07 6.85L8.07 6.85Q8.56 6.62 9.32 6.45L9.32 6.45L9.32 6.45Q10.08 6.28 10.92 6.28L10.92 6.28L10.92 6.28Q12.65 6.28 13.54 7.03L13.54 7.03L13.54 7.03Q14.43 7.79 14.43 9.19L14.43 9.19ZM10.88 10.86L10.88 10.86L10.88 10.86Q10.60 10.86 10.60 11.12L10.60 11.12L10.60 11.12Q10.60 11.37 10.93 11.37L10.93 11.37L10.93 11.37Q11.16 11.37 11.27 11.26L11.27 11.26L11.27 11.26Q11.38 11.14 11.38 10.86L11.38 10.86L11.38 10.86Q11.38 10.86 10.88 10.86ZM17.14 14L17.14 14L17.14 14Q16.33 14 15.85 13.71L15.85 13.71L15.85 13.71Q15.31 13.40 15.31 12.80L15.31 12.80L15.31 9.28L15.31 9.28Q14.90 8.71 14.90 7.88L14.90 7.88L14.90 7.88Q14.90 7.05 15.31 6.44L15.31 6.44L16.35 6.44L16.35 6.44Q17.16 6.44 17.51 6.96L17.51 6.96L17.51 6.96Q17.34 7.15 17.21 7.44L17.21 7.44L17.21 7.44Q17.08 7.74 17.08 7.86L17.08 7.86L17.08 7.86Q17.08 7.99 17.14 8.05L17.14 8.05L17.14 8.05Q17.21 8.11 17.33 8.11L17.33 8.11L17.33 8.11Q17.57 7.16 18.24 6.72L18.24 6.72L18.24 6.72Q18.79 6.34 19.61 6.34L19.61 6.34L19.61 6.34Q20.62 6.34 21.19 6.77L21.19 6.77L21.19 6.77Q21.40 7.32 21.40 8.11L21.40 8.11L21.40 8.11Q21.40 8.90 21.08 9.54L21.08 9.54L21.08 9.54Q20.85 9.67 20.44 9.75L20.44 9.75L20.44 9.75Q20.03 9.84 19.61 9.84L19.61 9.84L19.61 9.84Q19.20 9.84 18.86 9.78L18.86 9.78L18.86 9.78Q18.53 9.72 18.38 9.67L18.38 9.67L18.38 9.67Q18.33 9.73 18.33 9.83L18.33 9.83L18.33 9.83Q18.33 9.93 18.46 9.98L18.46 9.98L18.46 9.98Q18.59 10.04 18.91 10.10L18.91 10.10L18.91 13.53L18.91 13.53Q18.16 14 17.14 14ZM28.20 9.19L28.20 10.53L28.20 10.53Q28.20 11.02 28.31 11.32L28.31 11.32L28.31 11.32Q28.42 11.62 28.69 11.79L28.69 11.79L28.69 11.79Q28.70 11.83 28.70 11.92L28.70 11.92L28.70 12.04L28.70 12.04Q28.70 13.02 28.11 13.56L28.11 13.56L28.11 13.56Q27.59 14.03 26.82 14.03L26.82 14.03L26.82 14.03Q26.30 14.03 25.87 13.79L25.87 13.79L25.87 13.79Q25.44 13.54 25.26 13.08L25.26 13.08L25.26 13.08Q25.03 13.08 25.03 13.30L25.03 13.30L25.03 13.30Q25.03 13.49 25.27 13.73L25.27 13.73L25.27 13.73Q24.82 14.03 23.93 14.03L23.93 14.03L23.93 14.03Q22.66 14.03 21.91 13.35L21.91 13.35L21.91 13.35Q21.15 12.66 21.15 11.43L21.15 11.43L21.15 11.43Q21.15 10.19 21.95 9.52L21.95 9.52L21.95 9.52Q22.68 8.91 23.84 8.91L23.84 8.91L23.84 8.91Q24.24 8.91 24.61 8.96L24.61 8.96L24.61 8.96Q24.86 9.01 24.88 9.02L24.88 9.02L24.88 9.02Q24.90 8.95 24.90 8.90L24.90 8.90L24.90 8.90Q24.90 8.72 24.60 8.66L24.60 8.66L24.60 8.66Q24.29 8.60 23.81 8.60L23.81 8.60L23.81 8.60Q22.78 8.60 22.05 9.02L22.05 9.02L22.05 9.02Q21.71 8.45 21.71 7.58L21.71 7.58L21.71 7.58Q21.71 7.09 21.83 6.85L21.83 6.85L21.83 6.85Q22.33 6.62 23.08 6.45L23.08 6.45L23.08 6.45Q23.84 6.28 24.68 6.28L24.68 6.28L24.68 6.28Q26.42 6.28 27.31 7.03L27.31 7.03L27.31 7.03Q28.20 7.79 28.20 9.19L28.20 9.19ZM24.65 10.86L24.65 10.86L24.65 10.86Q24.36 10.86 24.36 11.12L24.36 11.12L24.36 11.12Q24.36 11.37 24.70 11.37L24.70 11.37L24.70 11.37Q24.93 11.37 25.04 11.26L25.04 11.26L25.04 11.26Q25.15 11.14 25.15 10.86L25.15 10.86L25.15 10.86Q25.15 10.86 24.65 10.86ZM35.34 6.23L35.34 10.79L35.34 10.79Q35.34 12.23 34.43 13.13L34.43 13.13L34.43 13.13Q33.46 14.10 31.75 14.10L31.75 14.10L31.75 14.10Q30.77 14.10 29.89 13.60L29.89 13.60L29.89 13.60Q29.22 13.21 28.88 12.71L28.88 12.71L28.88 12.71Q28.81 12.30 28.81 11.96L28.81 11.96L28.81 11.96Q28.81 10.84 29.48 10.25L29.48 10.25L29.48 10.25Q30.03 9.77 30.83 9.77L30.83 9.77L30.83 9.77Q31.44 9.77 31.94 10.09L31.94 10.09L31.94 10.09Q32.44 10.43 32.68 11.03L32.68 11.03L32.68 11.03Q32.90 11.03 32.90 10.81L32.90 10.81L32.90 10.81Q32.90 10.69 32.80 10.50L32.80 10.50L32.80 10.50Q32.70 10.31 32.52 10.12L32.52 10.12L32.52 10.12Q32.03 9.62 31.35 9.50L31.35 9.50L31.35 5.56L31.35 5.56Q31.69 5.31 32.21 5.14L32.21 5.14L32.21 5.14Q32.73 4.97 33.39 4.97L33.39 4.97L33.39 4.97Q34.06 4.97 34.59 5.20L34.59 5.20L34.59 5.20Q35.34 5.54 35.34 6.23L35.34 6.23ZM39.38 10.10L39.38 10.10L39.38 11.30L39.38 11.30Q39.42 11.35 39.53 11.35L39.53 11.35L39.53 11.35Q39.64 11.35 39.69 11.27L39.69 11.27L39.69 11.27Q39.74 11.20 39.74 11.01L39.74 11.01L39.74 10.04L39.74 10.04Q39.74 9.38 39.68 9.16L39.68 9.16L39.68 9.16Q39.63 8.95 39.48 8.95L39.48 8.95L39.48 8.95Q39.38 8.95 39.31 9.02L39.31 9.02L39.31 9.02Q39.38 9.69 39.38 10.10ZM36.82 13.13L36.82 13.13L36.82 13.13Q35.70 12.05 35.70 10.20L35.70 10.20L35.70 10.20Q35.70 8.35 36.75 7.28L36.75 7.28L36.75 7.28Q37.81 6.21 39.53 6.21L39.53 6.21L39.53 6.21Q41.24 6.21 42.30 7.33L42.30 7.33L42.30 7.33Q43.35 8.44 43.35 10.23L43.35 10.23L43.35 10.23Q43.35 12.02 42.34 13.07L42.34 13.07L42.34 13.07Q41.32 14.12 39.58 14.12L39.58 14.12L39.58 14.12Q37.84 14.12 36.82 13.13ZM47.07 11.12L47.07 11.12L47.07 11.12Q47.14 11.18 47.24 11.18L47.24 11.18L47.24 11.18Q47.39 11.18 47.44 10.97L47.44 10.97L47.44 10.97Q47.50 10.75 47.50 10.10L47.50 10.10L47.50 9.40L47.50 9.40Q47.50 9.21 47.45 9.14L47.45 9.14L47.45 9.14Q47.40 9.06 47.29 9.06L47.29 9.06L47.29 9.06Q47.18 9.06 47.13 9.11L47.13 9.11L47.13 10.03L47.13 10.03Q47.13 10.44 47.07 11.12ZM47.35 5.52L47.35 5.52L47.35 6.13L47.35 6.13Q46.77 6.16 46.29 6.30L46.29 6.30L46.29 6.30Q45.81 6.44 45.81 6.62L45.81 6.62L45.81 6.62Q45.81 6.73 45.92 6.80L45.92 6.80L45.92 6.80Q46.68 6.43 47.52 6.43L47.52 6.43L47.52 6.43Q49.02 6.43 49.98 7.47L49.98 7.47L49.98 7.47Q50.94 8.50 50.94 10.17L50.94 10.17L50.94 10.17Q50.94 12.17 49.78 13.19L49.78 13.19L49.78 13.19Q48.72 14.12 46.90 14.12L46.90 14.12L46.90 14.12Q45.08 14.12 44.21 13.42L44.21 13.42L44.21 13.42Q43.74 13.03 43.74 12.41L43.74 12.41L43.74 4.61L43.74 4.61Q44.07 4.42 44.53 4.29L44.53 4.29L44.53 4.29Q44.99 4.17 45.47 4.17L45.47 4.17L45.47 4.17Q46.25 4.17 46.76 4.48L46.76 4.48L46.76 4.48Q47.35 4.84 47.35 5.52ZM54.95 8.55L54.95 8.55L54.95 8.55Q54.78 8.61 54.78 8.76L54.78 8.76L54.78 8.80L54.78 8.80Q54.78 8.83 54.78 8.84L54.78 8.84L54.78 8.84Q54.86 8.83 54.98 8.83L54.98 8.83L55.15 8.83L55.15 8.83Q55.92 8.83 56.60 9.07L56.60 9.07L56.60 9.07Q57.29 9.30 57.72 9.82L57.72 9.82L57.72 9.82Q58.19 10.41 58.19 11.31L58.19 11.31L58.19 11.31Q58.19 12.70 57.23 13.41L57.23 13.41L57.23 13.41Q56.27 14.12 54.65 14.12L54.65 14.12L54.65 14.12Q53.04 14.12 52.13 13.59L52.13 13.59L52.13 13.59Q51.21 13.06 51.21 12.02L51.21 12.02L51.21 12.02Q51.21 11.64 51.38 11.32L51.38 11.32L51.38 11.32Q51.54 11.01 51.75 10.88L51.75 10.88L51.75 10.88Q52.12 11.19 52.84 11.42L52.84 11.42L52.84 11.42Q53.55 11.65 54.35 11.65L54.35 11.65L54.35 11.65Q54.67 11.65 54.67 11.47L54.67 11.47L54.67 11.47Q54.67 11.39 54.65 11.33L54.65 11.33L54.65 11.33Q54.61 11.34 54.54 11.34L54.54 11.34L54.46 11.34L54.46 11.34Q53.01 11.34 52.14 10.77L52.14 10.77L52.14 10.77Q51.16 10.12 51.16 8.93L51.16 8.93L51.16 8.93Q51.16 7.75 52.04 7.02L52.04 7.02L52.04 7.02Q53.02 6.21 54.73 6.21L54.73 6.21L54.73 6.21Q55.57 6.21 56.30 6.39L56.30 6.39L56.30 6.39Q57.03 6.57 57.54 6.86L57.54 6.86L57.54 6.86Q57.67 7.14 57.67 7.69L57.67 7.69L57.67 7.69Q57.67 8.52 57.22 8.97L57.22 8.97L57.22 8.97Q56.87 8.78 56.37 8.65L56.37 8.65L56.37 8.65Q55.86 8.52 55.46 8.52L55.46 8.52L55.46 8.52Q55.06 8.52 54.95 8.55Z"></path></g><!----><!----></svg>